<?xml version="1.0" encoding="iso-8859-1"?>
<!-- Generator: Adobe Illustrator 19.0.0, SVG Export Plug-In . SVG Version: 6.00 Build 0)  -->
<svg version="1.1" id="Capa_1" xmlns="http://www.w3.org/2000/svg" xmlns:xlink="http://www.w3.org/1999/xlink" x="0px" y="0px"
	 viewBox="0 0 512 512" style="enable-background:new 0 0 512 512;" xml:space="preserve">
<g>
	<g>
		<path style="fill:#fff9d9;" d="M462,452H333.99v-52h20.022c20.953,0,38-17.047,38-38s-17.047-38-38-38h-20.008V194.713c0-5.523-4.478-10-10-10
			c-5.522,0-10,4.477-10,10V324H198.021v-33.667c0-5.522-4.478-10-10-10c-5.522,0-10,4.478-10,10V324h-20.008
			c-20.953,0-38,17.047-38,38s17.047,38,38,38h19.992v52H50c-27.57,0-50,22.43-50,50c0,5.522,4.478,10,10,10h492
			c5.522,0,10-4.478,10-10C512,474.43,489.57,452,462,452z M158.013,380c-9.925,0-18-8.075-18-18s8.075-18,18-18h196
			c9.925,0,18,8.075,18,18s-8.075,18-18,18H158.013z M313.99,400v52H198.005v-52H313.99z M21.714,492
			c4.127-11.641,15.248-20,28.286-20h412c13.038,0,24.159,8.359,28.286,20H21.714z"/>
	</g>
</g>
<g>
	<g>
		<path style="fill:#fff9d9;" d="M195.092,242.93c-1.86-1.86-4.44-2.93-7.07-2.93c-2.63,0-5.21,1.07-7.07,2.93c-1.859,1.86-2.93,4.44-2.93,7.07
			s1.07,5.21,2.93,7.069c1.86,1.86,4.44,2.931,7.07,2.931s5.21-1.07,7.07-2.931c1.859-1.859,2.93-4.439,2.93-7.069
			S196.952,244.79,195.092,242.93z"/>
	</g>
</g>
<g>
	<g>
		<path style="fill:#fff9d9;" d="M331.072,146.78c-1.859-1.86-4.439-2.93-7.069-2.93c-2.631,0-5.21,1.07-7.07,2.93c-1.86,1.86-2.93,4.44-2.93,7.08
			c0,2.63,1.069,5.2,2.93,7.07c1.86,1.86,4.439,2.92,7.07,2.92c2.63,0,5.21-1.06,7.069-2.92c1.87-1.87,2.931-4.45,2.931-7.07
			C334.003,151.22,332.942,148.65,331.072,146.78z"/>
	</g>
</g>
<g>
	<g>
		<path style="fill:#fff9d9;" d="M448.014,164.033v-33.7C448.013,99.271,422.742,74,391.68,74h-57.675V62.333C334.005,27.963,306.042,0,271.672,0h-31.318
			c-34.37,0-62.333,27.963-62.333,62.333V74h-57.675c-31.063,0-56.333,25.271-56.333,56.333v33.7c-18.005,2.197-32,17.568-32,36.157
			v56.841c0,20.091,16.345,36.437,36.436,36.437h11.127c20.091,0,36.437-16.346,36.437-36.437V200.19
			c0-18.589-13.995-33.96-32-36.157v-33.7c0-20.034,16.299-36.333,36.333-36.333h57.675v118.333c0,5.523,4.478,10,10,10
			c5.522,0,10-4.477,10-10V94h115.984v18.467c0,5.523,4.478,10,10,10c5.522,0,10-4.477,10-10V94h57.675
			c20.034,0,36.333,16.299,36.333,36.333v33.7c-18.005,2.197-32,17.568-32,36.157v56.841c0,20.091,16.346,36.437,36.437,36.437
			h11.127c20.091,0,36.437-16.346,36.437-36.437V200.19C480.014,181.601,466.019,166.23,448.014,164.033z M96.014,200.19v56.841
			c0,9.063-7.373,16.437-16.437,16.437H68.449c-9.063,0-16.437-7.373-16.437-16.437V200.19h0.001
			c0-9.063,7.373-16.437,16.437-16.437h11.127C88.64,183.753,96.014,191.127,96.014,200.19z M314.005,74H198.021V62.333
			c0-23.343,18.99-42.333,42.333-42.333h31.318c23.343,0,42.333,18.991,42.333,42.333V74z M460.013,257.031
			c0,9.063-7.373,16.437-16.437,16.437h-11.127c-9.063,0-16.437-7.373-16.437-16.437V200.19c0-9.063,7.373-16.437,16.437-16.437
			h11.127c9.064,0.001,16.437,7.374,16.437,16.437V257.031z"/>
	</g>
</g>
<g>
</g>
<g>
</g>
<g>
</g>
<g>
</g>
<g>
</g>
<g>
</g>
<g>
</g>
<g>
</g>
<g>
</g>
<g>
</g>
<g>
</g>
<g>
</g>
<g>
</g>
<g>
</g>
<g>
</g>
</svg>
