<?xml version="1.0" encoding="iso-8859-1"?>
<!-- Generator: Adobe Illustrator 19.0.0, SVG Export Plug-In . SVG Version: 6.00 Build 0)  -->
<svg version="1.1" id="Capa_1" xmlns="http://www.w3.org/2000/svg" xmlns:xlink="http://www.w3.org/1999/xlink" x="0px" y="0px"
	 viewBox="0 0 512 512" style="enable-background:new 0 0 512 512;" xml:space="preserve">
<g>
	<g>
		<g>
			<path style="fill:#fff9d9;" d="M492.462,100.446H433.61c-2.504-6.161-8.546-10.521-15.594-10.521h-63.522c-7.049,0-13.091,4.359-15.594,10.521H173.101
				c-2.503-6.161-8.545-10.521-15.593-10.521H93.984c-7.049,0-13.091,4.359-15.594,10.521H14.681C6.586,100.446,0,107.032,0,115.127
				v9.714c0,8.095,6.586,14.681,14.681,14.681H78.39c2.503,6.161,8.545,10.521,15.594,10.521h23.245v113.085
				c-40.41,3.8-72.141,37.904-72.141,79.291c0,43.922,35.734,79.656,79.656,79.656c43.922,0,79.656-35.734,79.656-79.656
				c0-41.387-31.731-75.49-72.141-79.291V150.043h25.249c7.049,0,13.091-4.359,15.593-10.521h165.798
				c2.504,6.161,8.546,10.521,15.594,10.521h25.248v113.085c-40.41,3.8-72.141,37.904-72.141,79.291
				c0,43.922,35.733,79.656,79.656,79.656s79.656-35.734,79.656-79.656c0-41.387-31.731-75.49-72.141-79.291V150.043h23.244
				c7.049,0,13.091-4.359,15.594-10.521h58.852c10.773,0,19.538-8.765,19.538-19.538C512,109.211,503.235,100.446,492.462,100.446z
				 M77.151,124.493H15.029v-9.018h62.121V124.493z M189.37,342.419c0,35.635-28.992,64.626-64.626,64.626
				c-35.635,0-64.626-28.992-64.626-64.626c0-35.635,28.992-64.626,64.626-64.626C160.378,277.793,189.37,306.784,189.37,342.419z
				 M159.311,133.21c0,0.995-0.81,1.804-1.804,1.804H93.984c-0.995,0-1.804-0.81-1.804-1.804v-26.452
				c0-0.995,0.81-1.804,1.804-1.804h63.524c0.995,0,1.804,0.81,1.804,1.804V133.21z M337.659,124.493H174.341v-9.018h163.319
				V124.493z M451.883,342.419c0,35.635-28.992,64.626-64.626,64.626s-64.626-28.992-64.626-64.626
				c0-35.635,28.992-64.626,64.626-64.626S451.883,306.784,451.883,342.419z M419.82,133.21c0,0.995-0.81,1.804-1.805,1.804h-63.522
				c-0.995,0-1.805-0.81-1.805-1.804v-26.452c0-0.995,0.81-1.804,1.805-1.804h63.522c0.995,0,1.805,0.81,1.805,1.804V133.21z
				 M492.462,124.493h-57.613v-9.018h57.613c2.486,0,4.509,2.023,4.509,4.509C496.971,122.47,494.948,124.493,492.462,124.493z"/>
			<path style="fill:#fff9d9;" d="M75.147,342.419c0,27.347,22.249,49.597,49.597,49.597s49.597-22.249,49.597-49.597s-22.249-49.597-49.597-49.597
				S75.147,315.071,75.147,342.419z M159.311,342.419c0,19.06-15.507,34.568-34.568,34.568c-19.06,0-34.568-15.507-34.568-34.568
				s15.507-34.568,34.568-34.568S159.311,323.359,159.311,342.419z"/>
			<path style="fill:#fff9d9;" d="M345.98,314.972c-3.311,4.967,0.313,11.626,6.282,11.626h0.012c2.516,0,4.849-1.272,6.249-3.362
				c6.691-9.993,18.443-16.323,31.564-15.272c17.399,1.393,31.166,15.891,31.719,33.337c0.62,19.568-15.119,35.685-34.549,35.685
				c-11.175,0-21.126-5.332-27.449-13.585c-1.418-1.851-3.614-2.936-5.946-2.936c-6.215,0-9.754,7.133-5.974,12.067
				c9.069,11.835,23.339,19.483,39.368,19.483c28.012,0,50.675-23.343,49.557-51.599c-1.005-25.432-21.547-46.228-46.967-47.529
				C371.583,291.954,355.319,300.965,345.98,314.972z"/>
		</g>
	</g>
</g>
<g>
</g>
<g>
</g>
<g>
</g>
<g>
</g>
<g>
</g>
<g>
</g>
<g>
</g>
<g>
</g>
<g>
</g>
<g>
</g>
<g>
</g>
<g>
</g>
<g>
</g>
<g>
</g>
<g>
</g>
</svg>
