<?xml version="1.0" encoding="UTF-8" standalone="no"?>
<!-- Created with Inkscape (http://www.inkscape.org/) -->

<svg
   xmlns:dc="http://purl.org/dc/elements/1.1/"
   xmlns:cc="http://creativecommons.org/ns#"
   xmlns:rdf="http://www.w3.org/1999/02/22-rdf-syntax-ns#"
   xmlns:svg="http://www.w3.org/2000/svg"
   xmlns="http://www.w3.org/2000/svg"
   xmlns:sodipodi="http://sodipodi.sourceforge.net/DTD/sodipodi-0.dtd"
   xmlns:inkscape="http://www.inkscape.org/namespaces/inkscape"
   width="69.870552mm"
   height="69.988014mm"
   viewBox="0 0 69.870552 69.988014"
   version="1.1"
   id="svg8"
   inkscape:version="0.92.0 r15299"
   sodipodi:docname="logo.svg">
  <defs
     id="defs2" />
  <sodipodi:namedview
     id="base"
     pagecolor="#ffffff"
     bordercolor="#666666"
     borderopacity="1.0"
     inkscape:pageopacity="0.0"
     inkscape:pageshadow="2"
     inkscape:zoom="1.3209266"
     inkscape:cx="217.97352"
     inkscape:cy="75.613707"
     inkscape:document-units="mm"
     inkscape:current-layer="layer1"
     showgrid="false"
     inkscape:snap-center="true"
     fit-margin-top="0"
     fit-margin-left="0"
     fit-margin-right="0"
     fit-margin-bottom="0"
     inkscape:pagecheckerboard="false"
     inkscape:window-width="1366"
     inkscape:window-height="706"
     inkscape:window-x="-8"
     inkscape:window-y="-8"
     inkscape:window-maximized="1" />
  <metadata
     id="metadata5">
    <rdf:RDF>
      <cc:Work
         rdf:about="">
        <dc:format>image/svg+xml</dc:format>
        <dc:type
           rdf:resource="http://purl.org/dc/dcmitype/StillImage" />
        <dc:title></dc:title>
      </cc:Work>
    </rdf:RDF>
  </metadata>
  <g
     inkscape:label="Layer 1"
     inkscape:groupmode="layer"
     id="layer1"
     transform="translate(-100.22686,-20.249926)">
    <path
       style="fill:#ef594b;stroke-width:0.52913386"
       d="m 510.85547,76.535156 c -46.29154,0 -81.11615,7.454202 -103.15235,22.082032 -5.33256,3.539872 -13.29565,11.058632 -16.99218,16.044922 -5.21556,7.0354 -8.90373,15.72254 -10.90821,25.68945 -1.42677,7.09452 -1.29535,23.05616 0.26563,32.15821 5.02726,29.31367 21.47931,66.66791 45.4668,103.23242 25.79357,39.31752 51.73618,61.10334 77.11718,64.76172 h 0.002 c 14.56504,2.0983 29.8656,-1.79558 44.58398,-11.34961 22.43312,-14.56184 45.54123,-43.69369 67.99219,-85.71289 14.00632,-26.2142 22.80209,-49.84101 26.40625,-70.93164 1.42035,-8.31134 1.68738,-24.46184 0.51172,-30.90235 -4.05672,-22.22358 -16.47336,-37.96532 -38.42969,-48.716795 -22.6272,-11.07995 -52.58342,-16.355469 -92.86328,-16.355469 z m 36.49805,20.625 c 2.10168,0 2.58509,0.200313 3.18554,1.322266 0.49712,0.928857 1.15201,1.324219 2.19532,1.324219 2.55314,0 3.15553,1.677759 3.36718,9.363279 0.10265,3.7262 0.33862,7.1666 0.52344,7.64649 0.18516,0.47985 0.0825,1.03065 -0.22852,1.22265 -0.31082,0.19212 -0.56445,1.03433 -0.56445,1.87305 0,0.83871 -0.21666,1.65937 -0.48047,1.82227 -0.26381,0.16289 -0.35544,0.77173 -0.20312,1.35351 0.15216,0.58175 0.0273,1.05859 -0.27735,1.05859 -0.3047,0 -0.62968,0.53023 -0.72265,1.17774 -0.093,0.64751 -0.67155,1.42584 -1.28516,1.73047 -1.04258,0.51757 -0.9124,0.70349 1.98438,2.83593 1.77978,1.31022 3.09961,2.68562 3.09961,3.23047 0,0.52192 0.35838,1.80484 0.79492,2.84961 0.43653,1.04478 0.79297,2.75261 0.79297,3.79492 0,1.0424 0.39834,2.65651 0.88476,3.5879 0.48643,0.93138 1.2916,3.00288 1.78906,4.60351 0.8199,2.63804 1.05857,2.92575 2.55469,3.07617 1.33795,0.1344 1.65039,-0.0287 1.65039,-0.86132 0,-1.20957 1.2472,-4.18444 2.33789,-5.57618 0.66501,-0.84854 0.90404,-0.88313 1.78516,-0.26367 2.61993,1.84207 3.81445,3.97459 3.81445,6.81445 0,3.40649 -1.58036,6.33594 -3.41797,6.33594 -0.66818,0 -1.52629,0.37422 -1.90625,0.83203 -1.17377,1.41434 -4.58731,2.8711 -6.72656,2.8711 -2.5999,0 -4.4876,-1.88279 -5.57422,-5.55664 -0.4611,-1.55906 -0.90181,-2.31932 -1.07226,-1.85157 -0.55782,1.53098 -2.09123,18.82966 -2.05078,23.14063 0.0224,2.39561 -0.15737,4.47848 -0.4004,4.62891 -0.24309,0.15019 -0.60916,1.70608 -0.8125,3.45703 -0.3643,3.13957 -0.34342,3.21043 1.53516,5.14453 1.04765,1.0786 1.90625,2.28722 1.90625,2.68554 0,0.39829 2.73721,3.54752 6.08399,7 3.34677,3.45253 6.08593,6.52003 6.08593,6.81446 0,0.29461 0.72659,1.36295 1.61524,2.375 2.01781,2.2984 2.65063,4.43057 2.07422,6.98633 -0.25399,1.12713 -0.23067,3.82892 0.0547,6.2539 0.27625,2.34822 0.75201,6.77043 1.05664,9.82617 0.49913,5.00561 2.69817,14.93392 4.12305,18.61914 0.30259,0.78263 1.0483,1.68908 1.6582,2.01563 0.60991,0.3264 1.31104,1.12628 1.5586,1.77734 0.55789,1.46737 6.65233,5.63086 8.24219,5.63086 0.64282,0 1.79567,0.49448 2.5625,1.09766 3.07797,2.42113 0.94574,6.83619 -3.30665,6.84375 -1.05202,0.002 -4.65127,0.37086 -7.99804,0.81836 -8.7645,1.17184 -10.58064,0.6018 -11.32422,-3.55274 -0.30697,-1.71507 0.24644,-4.43579 2.13476,-10.49804 0.13595,-0.43654 -1.40682,-4.95982 -3.42773,-10.05274 -4.64372,-11.70262 -4.81729,-12.33884 -5.16992,-19.04883 -0.31752,-6.03979 -1.13848,-8.44746 -3.37891,-9.90625 -2.29633,-1.49521 -11.64062,-9.70772 -11.64062,-10.23046 0,-1.40081 -0.93138,-0.12546 -2.05469,2.81445 -2.42547,6.34787 -7.90351,16.35366 -10.42578,19.04101 -1.1311,1.2053 -1.81314,1.45508 -3.96875,1.45508 -1.99998,0 -3.78422,0.56425 -7.70117,2.43164 -2.80369,1.33667 -6.03255,2.75872 -7.17578,3.16211 -1.1432,0.40332 -2.77699,1.23187 -3.63086,1.83985 -1.47515,1.05044 -1.55198,1.29318 -1.5293,4.90429 0.0355,5.79969 0.81845,11.45392 1.68555,12.16602 0.42172,0.34635 1.181,1.76019 1.6875,3.14062 1.08956,2.96977 5.62231,7.84399 8.58984,9.23633 1.65555,0.77677 2.0658,1.26959 2.19922,2.64844 0.0902,0.93196 -0.0974,2.18184 -0.41602,2.77734 v 0.002 c -0.5218,0.97511 -1.06432,1.07711 -5.45508,1.04687 -4.33303,-0.0314 -7.43048,-0.58688 -10.30859,-1.84765 -0.50441,-0.22073 -1.07892,-0.36977 -1.27734,-0.33008 -0.74578,0.14883 -4.44736,-1.63458 -5.59766,-2.69727 -1.04235,-0.96283 -1.15431,-1.44896 -0.875,-3.78515 0.17632,-1.4744 0.8001,-3.99117 1.38672,-5.5918 0.62052,-1.69312 1.18759,-4.89135 1.35352,-7.64844 l 0.2832,-4.74023 -1.69531,1.93164 c -1.95697,2.22882 -2.69532,4.40128 -2.69532,7.91601 0,3.08531 -0.90389,5.1875 -2.23046,5.1875 -0.71124,0 -1.39444,-0.8844 -2.35157,-3.04297 -1.23318,-2.78101 -1.32195,-3.45176 -1.02148,-7.80468 0.18077,-2.61922 0.47187,-7.64957 0.64648,-11.17969 0.27493,-5.55674 0.4756,-6.6172 1.49414,-7.89453 1.20216,-1.5069 1.68252,-1.50759 3.72657,-0.004 1.04779,0.77065 1.05649,0.69485 0.93554,-7.48828 -0.11244,-7.59878 -0.21231,-8.36262 -1.24218,-9.45898 -1.12506,-1.19759 -2.7898,-2.00283 -5.25,-2.53907 -0.72756,-0.15859 -3.10834,-1.9536 -5.29102,-3.99023 -2.18268,-2.03664 -4.21074,-3.71132 -4.50781,-3.72266 -0.29711,-0.0111 -1.13009,1.1083 -1.85157,2.48828 -2.413,4.61537 -10.26833,15.48047 -11.1914,15.48047 -0.67661,0 -3.04946,2.76084 -3.06836,3.57227 -0.009,0.36359 -0.21603,0.66211 -0.46094,0.66211 -0.24472,0 -1.4179,0.95114 -2.60547,2.11523 -1.18753,1.1641 -2.47472,2.11503 -2.86133,2.11133 -0.38664,-0.004 -4.6317,-0.44562 -9.43359,-0.98242 -4.80189,-0.53662 -10.17475,-0.92527 -11.93945,-0.86328 -3.34553,0.11769 -10.28516,2.10998 -10.28516,2.95312 0,0.26714 -0.31892,0.48633 -0.71094,0.48633 -0.39201,0 -1.26246,0.47655 -1.93359,1.05859 -0.67109,0.58205 -1.76818,1.05664 -2.4375,1.05664 -1.45765,0 -3.91211,1.05078 -3.91211,1.67383 0,0.24424 -0.35643,0.44336 -0.79297,0.44336 -0.43646,0 -0.79895,0.17841 -0.80273,0.39649 -0.004,0.21826 -0.7904,1.32162 -1.7461,2.45117 -1.39033,1.64322 -1.97038,1.97953 -2.90234,1.68359 -1.59934,-0.50759 -1.52289,-2.55387 0.29102,-7.8457 2.15803,-6.29598 8.66563,-19.13292 9.80664,-19.3457 1.00316,-0.1872 6.68265,5.44431 6.71289,6.65429 0.018,0.75848 3.7444,0.92667 4.54101,0.20508 0.27647,-0.25043 3.02744,-1.56908 6.11524,-2.93164 l 5.61523,-2.47852 3.91016,0.81641 c 2.15062,0.44878 4.4448,0.81618 5.09961,0.81641 1.60883,6e-4 3.44831,-1.89977 3.05078,-3.15235 -0.32069,-1.01038 2.7145,-8.48828 3.44531,-8.48828 0.22046,0 0.78438,-0.89303 1.25391,-1.98437 0.97538,-2.26696 1.91151,-3.83456 2.75586,-4.61719 1.86901,-1.73242 2.32617,-3.25733 2.32617,-7.75391 0,-4.16734 -0.0876,-4.57209 -0.95313,-4.3457 -0.72536,0.18969 -1.29827,-0.42672 -2.38281,-2.57031 -0.78474,-1.55105 -1.42578,-3.2239 -1.42578,-3.71875 0,-0.49489 -0.45754,-1.14478 -1.01563,-1.44336 -0.80299,-0.42977 -1.06379,-1.28877 -1.2539,-4.11914 -0.13213,-1.96702 -0.74,-5.83879 -1.35156,-8.60352 -0.71037,-3.21131 -1.23329,-7.98903 -1.44532,-13.22851 l -0.33008,-8.20118 2.56641,-2.70312 c 2.9551,-3.11187 7.24394,-6.22157 9.28711,-6.73438 1.37329,-0.34465 7.60669,-6.7775 9.57813,-9.88476 1.25435,-1.97722 1.30953,-5.88651 0.13281,-9.42774 -1.1884,-3.57634 -0.95408,-9.01994 0.51562,-11.95898 0.57275,-1.14539 1.9211,-2.78164 2.99414,-3.636719 2.71393,-2.162683 5.32785,-2.367143 9.375,-0.732422 1.7791,0.718451 3.3659,1.094461 3.52539,0.835938 0.46375,-0.75035 1.28711,-0.54295 1.28711,0.324223 0,0.43653 0.23828,0.79296 0.5293,0.79296 0.80251,0 0.63206,4.58279 -0.20117,5.41602 -0.56958,0.56923 -0.62581,1.39878 -0.25391,3.76953 0.28725,1.82718 0.28359,3.38344 -0.008,3.9043 -0.32889,0.58771 -0.13014,1.79129 0.61719,3.74414 1.0439,2.72814 1.05418,2.91435 0.17578,3.55664 -0.51602,0.37735 -0.94815,1.41032 -0.97461,2.33203 -0.0259,0.91045 -0.25944,1.78582 -0.51758,1.94531 -0.25814,0.15961 -0.32582,0.7386 -0.15234,1.28516 0.17333,0.54656 0.042,1.50312 -0.29102,2.125 -0.48533,0.90811 -0.9754,1.08553 -2.47851,0.91016 l -1.875,-0.21875 0.36523,5.29296 c 0.33029,4.79558 0.56125,5.66561 2.47656,9.29297 1.88115,3.56262 2.07631,4.27369 1.77735,6.47266 -0.25539,1.87725 -0.0784,3.05254 0.73632,4.89453 0.58972,1.33319 1.19692,2.42383 1.34961,2.42383 0.15232,0 0.14898,-0.33817 -0.01,-0.75195 -0.15882,-0.41382 0.024,-1.30686 0.4082,-1.98438 0.47841,-0.84351 0.70048,-3.38402 0.70313,-8.06055 0.003,-4.98822 0.181,-6.89223 0.66406,-7.05664 0.36359,-0.12393 0.66211,0.16658 0.66211,0.64453 0,0.47777 0.2159,0.73592 0.48047,0.57227 0.9081,-0.56122 2.13471,0.3371 3.71875,2.72852 1.35065,2.03735 1.54683,2.75858 1.32422,4.84375 -0.14381,1.34762 -0.46458,2.92771 -0.71289,3.50976 -0.53919,1.26403 -2.16407,10.17123 -2.16407,11.86328 0,0.65458 -1.21321,3.55022 -2.69531,6.43555 -2.18476,4.25325 -2.91648,5.24609 -3.86719,5.24609 -1.34369,0 -2.59219,-0.86774 -3.36718,-2.34179 -0.44807,-0.85225 -0.64103,-0.50426 -1.17969,2.11718 -0.35445,1.72487 -0.94066,4.08786 -1.30274,5.25196 -0.56447,1.8158 -0.5268,2.42312 0.26172,4.27539 0.50555,1.18745 1.68051,2.73525 2.61133,3.43945 0.93078,0.7042 3.41277,2.95385 5.51563,4.99805 3.15375,3.06576 4.35042,4.75366 6.83984,9.64062 l 3.01953,5.92383 -0.83008,4.01953 c -0.57456,2.78086 -0.71977,5.14278 -0.4707,7.66992 0.42093,4.27004 0.51632,4.27102 5.25195,-0.0176 2.05523,-1.86123 3.68451,-2.81021 5.91602,-3.44532 6.14868,-1.74999 6.40122,-2.00439 8.7539,-8.76562 3.70542,-10.64924 3.97988,-11.71711 3.43555,-13.45313 -0.27379,-0.87307 -0.51222,-4.68349 -0.52734,-8.46679 -0.0241,-5.7182 0.20388,-7.81505 1.35547,-12.4336 2.88759,-11.58107 2.89602,-11.90943 0.56836,-21.69531 -1.48604,-6.24752 -2.77543,-9.51002 -3.76563,-9.51758 -0.36763,-0.003 -2.45766,1.2375 -4.64453,2.75781 l -3.97656,2.76368 0.25781,2.13086 c 0.14241,1.17165 0.40275,4.15325 0.57812,6.62695 0.17519,2.4737 0.5746,5.37931 0.88868,6.45508 0.50532,1.73212 0.72942,1.9246 1.95312,1.67968 1.17895,-0.2358 1.64189,0.09 3.14649,2.22461 1.16341,1.65079 1.68425,2.91995 1.52929,3.73047 -0.14547,0.76093 0.13763,1.5685 0.7461,2.11914 1.36728,1.23746 1.30953,3.36914 -0.0918,3.36914 -0.59119,0 -1.21147,0.35843 -1.37891,0.79493 -0.16751,0.43657 -0.63757,0.79296 -1.04297,0.79296 -0.40524,0 -0.73632,0.25819 -0.73632,0.57227 0,0.36246 -0.63005,0.44464 -1.72071,0.22656 -1.98081,-0.39643 -5.52609,-3.80118 -5.88476,-5.65039 -0.91529,-4.71999 -1.69235,-8.23555 -2.78516,-12.59765 -1.52205,-6.07544 -2.56033,-13.7521 -2.10547,-15.56446 0.39372,-1.56865 5.12827,-6.79832 8.19531,-9.05273 1.1878,-0.87307 2.16432,-1.836 2.17188,-2.14063 0.007,-0.3047 0.90476,-1.41145 1.99609,-2.45898 2.0236,-1.94238 5.29354,-3.76126 9.78907,-5.44727 1.38236,-0.51843 2.51367,-1.10141 2.51367,-1.29492 0,-0.27987 -4.40763,-2.67969 -4.92188,-2.67969 -0.0726,0 -0.0428,0.9531 0.0684,2.11719 0.20939,2.19568 -0.66644,2.95873 -1.36523,1.18945 -0.28993,-0.73356 -0.42343,-0.6038 -0.64453,0.61915 -0.15349,0.84895 -0.61077,1.65255 -1.01563,1.7871 -0.57562,0.19151 -0.64358,-0.0876 -0.3125,-1.27929 0.23305,-0.83826 0.44433,-5.73432 0.4707,-10.88086 l 0.0488,-9.35742 1.57617,-1.64649 c 1.19846,-1.25098 1.96079,-1.60929 3.16797,-1.49023 1.38513,0.13659 1.72457,-0.11388 2.6543,-1.95508 1.45841,-2.888248 4.01802,-4.501954 7.14063,-4.501954 z M 475.34375,147.54297 472,148.63086 l -3.3457,1.08789 -0.3418,3.77734 c -0.40547,4.47447 0.51078,12.14111 1.71875,14.375 1.49099,2.75724 2.7272,5.95898 2.74609,7.10743 0.0189,1.1715 0.0899,1.13202 0.76954,-0.43164 0.41094,-0.94561 1.38602,-2.01078 2.16796,-2.36719 l 1.42188,-0.64844 -0.33203,-9.00977 c -0.33041,-8.94172 -0.45098,-10.38375 -1.11524,-13.4082 z m -4.93164,31.80469 c -0.14565,0.0675 -0.31198,0.43217 -0.60156,1.14062 -0.46284,1.13208 -0.47947,1.96842 -0.0605,3.15625 l 0.57031,1.61719 0.35547,-1.58789 c 0.19533,-0.87307 0.42315,-1.82617 0.50781,-2.11719 0.0847,-0.29102 -0.0481,-0.99621 -0.29492,-1.56836 -0.20651,-0.47841 -0.33091,-0.70816 -0.47656,-0.64062 z m 43.14648,109.35937 c 4.17676,0 4.77465,0.1105 4.4961,0.83594 -0.17688,0.46035 -0.32031,1.057 -0.32031,1.32422 0,0.26702 -0.45579,0.48437 -1.01172,0.48437 -0.88434,0 -1.05425,0.54587 -1.36719,4.36524 -0.1988,2.40094 -0.27758,5.31381 -0.17969,6.47265 0.1705,2.01812 0.30095,1.81784 3.10547,-4.76172 2.92611,-6.86479 2.92808,-6.8698 4.81641,-7.02929 l 1.89062,-0.15821 0.33594,2.80469 c 0.18527,1.54292 0.36429,3.99606 0.39453,5.45117 0.12404,5.7233 0.70703,5.70969 2.51172,-0.0586 1.88387,-6.02147 2.01469,-7.08594 0.87891,-7.08594 -0.49399,0 -0.79297,-0.4992 -0.79297,-1.32226 0,-1.2926 0.0925,-1.32227 3.89453,-1.32227 3.8694,0 3.89391,0.008 3.64258,1.32227 -0.13909,0.72756 -0.53302,1.32226 -0.87696,1.32226 -0.34375,0 -1.86222,3.05956 -3.37304,6.79883 -4.96317,12.28347 -4.62871,11.7207 -6.97852,11.7207 h -2.05273 l -0.32618,-2.77734 c -0.17937,-1.52787 -0.50861,-4.20698 -0.73047,-5.95313 l -0.40234,-3.17382 -2.82617,5.95312 -2.82422,5.95117 h -2.00391 c -1.45232,0 -2.07765,-0.2545 -2.27343,-0.92578 -0.14854,-0.50929 -0.4337,-4.67614 -0.63477,-9.25976 -0.28581,-6.51307 -0.52499,-8.33399 -1.08984,-8.33399 -0.41813,0 -0.72266,-0.55687 -0.72266,-1.32226 0,-1.31528 0.033,-1.32227 4.82031,-1.32227 z m 39.36329,0 c 3.67475,0 3.96874,0.0816 3.96874,1.10742 0,0.63047 -0.42083,1.21658 -0.9746,1.36133 -0.78138,0.20432 -1.15217,1.31512 -1.88672,5.63867 -1.22601,7.21622 -2.8291,10.52811 -5.79297,11.96289 -4.14463,2.0064 -8.91922,1.04279 -10.62695,-2.14453 -1.01352,-1.88927 -1.01337,-2.0099 -0.0371,-8.375 0.79638,-5.19231 0.85728,-6.54215 0.3125,-6.8789 -0.37255,-0.23033 -0.59103,-0.86495 -0.48633,-1.41211 0.16505,-0.8631 0.77079,-1.0166 4.58789,-1.15039 4.32019,-0.15156 4.39746,-0.13223 4.22851,1.05859 -0.10722,0.75591 -0.58978,1.27245 -1.28125,1.37109 -0.95867,0.13694 -1.22813,0.82286 -1.98437,5.05664 -0.48125,2.69432 -0.875,5.74202 -0.875,6.77149 0,3.13591 2.62687,4.58337 5.13281,2.82812 1.30364,-0.91309 1.9907,-2.80581 2.78516,-7.67187 0.30882,-1.89165 0.68879,-4.21238 0.84375,-5.1582 0.24121,-1.47137 0.12528,-1.72071 -0.80078,-1.72071 -0.80179,0 -1.08204,-0.34242 -1.08204,-1.32226 10e-6,-1.2926 0.0884,-1.32227 3.96876,-1.32227 z m -73.70899,0.26367 c 4.89702,0 5.83395,0.14632 7.13086,1.10938 3.13323,2.32675 2.5681,7.68697 -1.00586,9.53515 -1.41369,0.73104 -1.48755,0.8945 -0.77148,1.69727 0.43555,0.48831 1.06836,1.926 1.40625,3.19531 0.41102,1.54322 0.96212,2.39835 1.66406,2.58203 0.70677,0.18478 0.99834,0.64153 0.89062,1.39649 -0.13844,0.97017 -0.56788,1.14293 -3.17382,1.27929 l -3.01172,0.15821 -1.11914,-3.75781 c -1.55354,-5.21658 -3.22344,-5.7261 -3.90625,-1.18946 -0.27701,1.84029 -0.18673,2.25 0.49804,2.25 0.56523,0 0.78211,0.38544 0.66797,1.18946 -0.15647,1.10165 -0.47447,1.20283 -4.26953,1.3457 -4.08189,0.15379 -4.10156,0.14689 -4.10156,-1.19141 0,-0.94979 0.28437,-1.34375 0.96679,-1.34375 0.83184,0 1.14929,-1.07355 2.2754,-7.70508 1.10418,-6.50245 1.19256,-7.77073 0.5664,-8.12109 -0.40822,-0.22836 -0.65377,-0.86814 -0.54492,-1.42187 0.17957,-0.9142 0.71712,-1.00782 5.83789,-1.00782 z m 1.78125,2.38086 c -1.12074,0 -1.30887,0.34741 -1.83203,3.35156 -0.32077,1.84275 -0.58399,3.62898 -0.58399,3.96876 10e-6,1.17954 2.55272,0.63797 3.66602,-0.77735 1.93523,-2.46024 1.15476,-6.54297 -1.25,-6.54297 z m 15.24414,1.58789 c 3.14483,0 3.3844,0.0812 3.12891,1.0586 -0.15224,0.58204 -0.58968,1.05859 -0.97266,1.05859 -0.83199,0 -1.03435,0.62884 -1.88281,5.86719 -0.87254,5.38734 -0.1732,6.87296 2.87695,6.10742 1.45406,-0.36495 2.15433,-1.73135 2.89844,-5.65234 1.21289,-6.39047 1.21289,-6.32227 0.13867,-6.32227 -0.73387,0 -0.92322,-0.27729 -0.71875,-1.05859 0.23698,-0.90633 0.72156,-1.0586 3.37305,-1.0586 2.73014,0 3.05419,0.10978 2.74804,0.92578 -0.19105,0.5093 -0.62544,1.16406 -0.96484,1.45508 -0.33936,0.29103 -0.91047,2.31537 -1.26953,4.49805 -0.87315,5.30623 -2.2606,8.14919 -4.49805,9.21094 -3.51832,1.66957 -7.52651,0.64506 -8.71679,-2.22852 -0.50638,-1.22294 -0.4637,-2.50862 0.2207,-6.45312 0.65866,-3.79741 0.70963,-5.01682 0.21875,-5.32032 -0.35036,-0.21645 -0.49127,-0.77429 -0.3125,-1.24023 0.25145,-0.65545 1.09715,-0.84766 3.73242,-0.84766 z"
       transform="scale(0.26458333)"
       id="path4496"
       inkscape:connector-curvature="0" />
  </g>
</svg>
